<svg xmlns="http://www.w3.org/2000/svg" width="54.515" height="47.758" viewBox="0 0 54.515 47.758"><path d="M22.1,62.966a9.428,9.428,0,0,1,18.239-2.73,6.368,6.368,0,0,1-.078,12.735H22.278A5,5,0,0,1,22.1,62.966Zm0,0" transform="translate(-15.434 -48.355)" fill="#f0f5f7"/><path d="M98.894,66.608a6.37,6.37,0,0,1-3.651,5.761,6.37,6.37,0,0,0-5.683-9.084,9.431,9.431,0,0,0-13.8-4.706A9.43,9.43,0,0,1,92.6,60.24a6.369,6.369,0,0,1,6.291,6.367Zm0,0" transform="translate(-67.695 -48.359)" fill="#dde9ed"/><path d="M229.3,165.551a10.61,10.61,0,0,0-20.524-3.072,7.166,7.166,0,0,0,.088,14.331h20.24a5.631,5.631,0,0,0,.2-11.259Zm0,0" transform="translate(-180.223 -139.027)" fill="#c4e1e8"/><path d="M313.361,171.179a5.633,5.633,0,0,1-5.633,5.633h-.436a5.632,5.632,0,0,0-4.8-8.236,10.618,10.618,0,0,0-12.805-9.726,10.608,10.608,0,0,1,18.234,6.7A5.63,5.63,0,0,1,313.361,171.179Zm0,0" transform="translate(-258.847 -139.027)" fill="#a4d5dd"/><path d="M216.722,87.252A12.627,12.627,0,1,1,204.1,74.625,12.627,12.627,0,0,1,216.722,87.252Zm0,0" transform="translate(-171.082 -66.679)" fill="#f6cb43"/><path d="M204.1,101.966a12.628,12.628,0,0,1-2.5-25.005,12.637,12.637,0,0,0,14.881,14.882A12.631,12.631,0,0,1,204.1,101.966Zm0,0" transform="translate(-171.085 -68.767)" fill="#fab03c"/><g transform="translate(22.316 0)"><path d="M465.824,187.137H463.1a.823.823,0,0,1,0-1.645h2.72a.823.823,0,1,1,0,1.645Zm0,0" transform="translate(-435.376 -165.742)" fill="#f8e98e"/><path d="M441.676,95.75a.823.823,0,0,1-.412-1.536l2.355-1.36a.822.822,0,1,1,.822,1.424l-2.355,1.36A.818.818,0,0,1,441.676,95.75Zm0,0" transform="translate(-416.229 -82.87)" fill="#f8e98e"/><path d="M383.129,28.85a.823.823,0,0,1-.712-1.234l1.36-2.355a.822.822,0,1,1,1.424.823l-1.36,2.355A.822.822,0,0,1,383.129,28.85Zm0,0" transform="translate(-363.917 -22.203)" fill="#f8e98e"/><path d="M303.159,4.365a.823.823,0,0,1-.823-.823V.823a.822.822,0,1,1,1.645,0v2.72A.822.822,0,0,1,303.159,4.365Zm0,0" transform="translate(-292.461 0)" fill="#f8e98e"/><path d="M211.772,28.851a.822.822,0,0,1-.713-.411l-1.36-2.355a.823.823,0,1,1,1.425-.823l1.36,2.355a.823.823,0,0,1-.712,1.234Zm0,0" transform="translate(-209.589 -22.205)" fill="#f8e98e"/></g><path d="M27.6,165.551a10.61,10.61,0,0,0-20.524-3.072,7.166,7.166,0,0,0,.088,14.331h20.24a5.631,5.631,0,0,0,.2-11.259Zm0,0" transform="translate(0 -139.027)" fill="#c4e1e8"/><path d="M111.662,171.179a5.633,5.633,0,0,1-5.633,5.633h-.436a5.632,5.632,0,0,0-4.8-8.236,10.618,10.618,0,0,0-12.805-9.726,10.608,10.608,0,0,1,18.235,6.7,5.63,5.63,0,0,1,5.435,5.626Zm0,0" transform="translate(-78.624 -139.027)" fill="#a4d5dd"/><path d="M186.923,259.227a10.61,10.61,0,0,0-20.524-3.072,7.166,7.166,0,0,0,.088,14.331h20.24a5.631,5.631,0,0,0,.2-11.259Zm0,0" transform="translate(-142.357 -222.729)" fill="#f0f5f7"/><path d="M270.979,264.855a5.633,5.633,0,0,1-5.633,5.633h-.436a5.632,5.632,0,0,0-4.8-8.236,10.618,10.618,0,0,0-12.806-9.726,10.608,10.608,0,0,1,18.235,6.7A5.63,5.63,0,0,1,270.979,264.855Zm0,0" transform="translate(-220.977 -222.729)" fill="#dde9ed"/><path d="M381.667,312.261a.823.823,0,0,1-.8-.631,7.124,7.124,0,0,0-.387-1.16.823.823,0,0,1,1.51-.653,8.794,8.794,0,0,1,.477,1.429.823.823,0,0,1-.8,1.015Zm0,0" transform="translate(-339.909 -276.386)" fill="#f0f5f7"/><path d="M318,268.072a.819.819,0,0,1-.594-.253,7.124,7.124,0,0,0-5.182-2.213.822.822,0,1,1,0-1.645,8.755,8.755,0,0,1,6.369,2.72.822.822,0,0,1-.594,1.392Zm0,0" transform="translate(-278.243 -235.856)" fill="#f0f5f7"/><path d="M46.265,313.2A7.585,7.585,0,0,1,60.939,311a5.123,5.123,0,0,1-.063,10.246H46.406a4.026,4.026,0,0,1-.141-8.05Zm0,0" transform="translate(-37.867 -273.489)" fill="#f0f5f7"/><path d="M121.565,316.127a5.124,5.124,0,0,1-5.053,5.122,5.122,5.122,0,0,0-3.711-8.587,7.589,7.589,0,0,0-8.235-4.839A7.584,7.584,0,0,1,116.5,311a5.122,5.122,0,0,1,5.061,5.122Zm0,0" transform="translate(-93.433 -273.492)" fill="#dde9ed"/></svg>