<svg xmlns="http://www.w3.org/2000/svg" width="96.083" height="96.054" viewBox="0 0 96.083 96.054"><path d="M81.951,47.864A40.716,40.716,0,1,1,46.6,1.3a1.241,1.241,0,0,1,.238.057h.042a1.4,1.4,0,0,1,.239,2.554,23.87,23.87,0,1,0,32.4,32.4,1.4,1.4,0,0,1,2.554.239v.042a1.24,1.24,0,0,1,.052.233,41.146,41.146,0,0,1-.169,11.045Z" transform="translate(-0.982 0.626)" fill="#f0c419"/><path d="M74.471,36.4v.042A30.881,30.881,0,1,1,39.244,1.215h.042a1.4,1.4,0,0,1,.239,2.554,23.87,23.87,0,1,0,32.4,32.4,1.405,1.405,0,0,1,2.548.233Z" transform="translate(6.61 0.763)" fill="#f3d55b"/><path d="M82.865,53.421A4.884,4.884,0,0,1,77.981,58.3H58.445a4.884,4.884,0,1,1,0,9.768H71.469a4.884,4.884,0,0,1,0,9.768h-29.3a4.884,4.884,0,1,1,0-9.768H32.4a4.884,4.884,0,1,1,0-9.768H25.884a4.884,4.884,0,0,1,0-9.768h9.768a4.884,4.884,0,1,1,0-9.768h8.14a4.884,4.884,0,0,1,0-9.768H66.585a4.884,4.884,0,1,1,0,9.768H73.1a4.884,4.884,0,0,1,0,9.768h4.884a4.884,4.884,0,0,1,4.884,4.884Z" transform="translate(11.59 18.213)" fill="#7f8c8d"/><path d="M73.1,53.421A4.884,4.884,0,0,1,68.213,58.3H48.677a4.884,4.884,0,1,1,0,9.768H61.7a4.884,4.884,0,0,1,0,9.768H42.164a4.884,4.884,0,1,1,0-9.768H32.4a4.884,4.884,0,1,1,0-9.768H25.884a4.884,4.884,0,0,1,0-9.768h9.768a4.884,4.884,0,1,1,0-9.768h8.14a4.884,4.884,0,0,1,0-9.768H56.817a4.884,4.884,0,0,1,0,9.768h6.512a4.884,4.884,0,0,1,0,9.768h4.884A4.884,4.884,0,0,1,73.1,53.421Z" transform="translate(11.59 18.213)" fill="#7f8c8d"/><path d="M55.908,57.884a4.884,4.884,0,0,1-4.884,4.884h-8.14a4.884,4.884,0,0,1,0-9.768h8.14A4.884,4.884,0,0,1,55.908,57.884Z" transform="translate(22.267 33.286)" fill="#95a5a5"/><path d="M68.7,53.421A4.884,4.884,0,0,1,63.817,58.3H44.28a4.884,4.884,0,1,1,0,9.768H39.4a4.884,4.884,0,1,1,0-9.768H32.884a4.884,4.884,0,1,1,0-9.768h9.768a4.884,4.884,0,0,1,0-9.768h8.14a4.884,4.884,0,0,1,0-9.768h1.628a4.884,4.884,0,0,1,0,9.768h6.512a4.884,4.884,0,0,1,0,9.768h4.884A4.884,4.884,0,0,1,68.7,53.421Z" transform="translate(15.986 18.213)" fill="#95a5a5"/><path d="M25.524,22.888a8.1,8.1,0,0,1-1.446.127,8.422,8.422,0,1,1,5.5-14.794,23.747,23.747,0,0,0-4.057,14.667Z" transform="translate(8.232 3.876)" fill="#f29c1f"/><circle cx="4.983" cy="4.983" r="4.983" transform="translate(8.336 31.53)" fill="#f29c1f"/><circle cx="3.323" cy="3.323" r="3.323" transform="translate(24.948 41.497)" fill="#f29c1f"/><path d="M23.884,36.512A4.884,4.884,0,0,1,19,31.628a1.628,1.628,0,1,1,3.256,0,1.628,1.628,0,1,0,3.256,0,1.628,1.628,0,1,1,3.256,0A4.884,4.884,0,0,1,23.884,36.512Z" transform="translate(10.334 18.841)" fill="#35495e"/><path d="M11.884,36.512A4.884,4.884,0,0,1,7,31.628a1.628,1.628,0,1,1,3.256,0,1.628,1.628,0,1,0,3.256,0,1.628,1.628,0,1,1,3.256,0A4.884,4.884,0,0,1,11.884,36.512Z" transform="translate(2.798 18.841)" fill="#35495e"/><path d="M25.652,41.52a1.628,1.628,0,0,1-1.449-.882,5.535,5.535,0,0,0-5.063-2.374,5.526,5.526,0,0,0-5.066,2.377,1.643,1.643,0,0,1-2.19.684,1.617,1.617,0,0,1-.713-2.16,8.658,8.658,0,0,1,7.969-4.156,8.65,8.65,0,0,1,7.977,4.156,1.628,1.628,0,0,1-1.465,2.356Z" transform="translate(5.31 21.974)" fill="#2c3e50"/><g transform="translate(48.87)"><path d="M35.628,15.884A1.628,1.628,0,0,1,34,14.256V12.628a1.628,1.628,0,1,1,3.256,0v1.628A1.628,1.628,0,0,1,35.628,15.884Z" transform="translate(-29.116 6.908)" fill="#f0c419"/><path d="M34.256,17.256H32.628a1.628,1.628,0,0,1,0-3.256h1.628a1.628,1.628,0,0,1,0,3.256Z" transform="translate(-31 8.792)" fill="#f0c419"/><path d="M35.628,20.884A1.628,1.628,0,0,1,34,19.256V17.628a1.628,1.628,0,1,1,3.256,0v1.628A1.628,1.628,0,0,1,35.628,20.884Z" transform="translate(-29.116 10.049)" fill="#f0c419"/><path d="M39.256,17.256H37.628a1.628,1.628,0,0,1,0-3.256h1.628a1.628,1.628,0,0,1,0,3.256Z" transform="translate(-27.86 8.792)" fill="#f0c419"/><path d="M48.628,4.884A1.628,1.628,0,0,1,47,3.256V1.628a1.628,1.628,0,1,1,3.256,0V3.256A1.628,1.628,0,0,1,48.628,4.884Z" transform="translate(-20.951)" fill="#f0c419"/><path d="M47.256,6.256H45.628a1.628,1.628,0,1,1,0-3.256h1.628a1.628,1.628,0,1,1,0,3.256Z" transform="translate(-22.836 1.884)" fill="#f0c419"/><path d="M48.628,9.884A1.628,1.628,0,0,1,47,8.256V6.628a1.628,1.628,0,1,1,3.256,0V8.256A1.628,1.628,0,0,1,48.628,9.884Z" transform="translate(-20.951 3.14)" fill="#f0c419"/><path d="M52.256,6.256H50.628a1.628,1.628,0,1,1,0-3.256h1.628a1.628,1.628,0,1,1,0,3.256Z" transform="translate(-19.695 1.884)" fill="#f0c419"/><path d="M56.628,16.884A1.628,1.628,0,0,1,55,15.256V13.628a1.628,1.628,0,0,1,3.256,0v1.628A1.628,1.628,0,0,1,56.628,16.884Z" transform="translate(-15.927 7.536)" fill="#f0c419"/><path d="M55.256,18.256H53.628a1.628,1.628,0,0,1,0-3.256h1.628a1.628,1.628,0,0,1,0,3.256Z" transform="translate(-17.811 9.421)" fill="#f0c419"/><path d="M56.628,21.884A1.628,1.628,0,0,1,55,20.256V18.628a1.628,1.628,0,0,1,3.256,0v1.628A1.628,1.628,0,0,1,56.628,21.884Z" transform="translate(-15.927 10.677)" fill="#f0c419"/><path d="M60.256,18.256H58.628a1.628,1.628,0,0,1,0-3.256h1.628a1.628,1.628,0,1,1,0,3.256Z" transform="translate(-14.671 9.421)" fill="#f0c419"/></g></svg>