<svg xmlns="http://www.w3.org/2000/svg" width="94.022" height="93.977" viewBox="0 0 94.022 93.977"><path d="M86.481,56.2a1.62,1.62,0,0,0-.428,1.562l2.862,11.525a1.659,1.659,0,0,1-1.134,1.99L76.354,74.547A1.661,1.661,0,0,0,75.219,75.7L72.26,86.73A1.638,1.638,0,0,1,70.287,87.9l-11.505-2.86a1.62,1.62,0,0,0-1.562.428L49.177,93.5a1.656,1.656,0,0,1-2.335,0L38.8,85.459a1.62,1.62,0,0,0-1.56-.428l-11.505,2.86a1.638,1.638,0,0,1-1.972-1.167L20.8,75.693a1.661,1.661,0,0,0-1.134-1.151L8.27,71.275a1.65,1.65,0,0,1-1.134-2.006L10.09,58.253a1.651,1.651,0,0,0-.41-1.562L1.43,48.126a1.64,1.64,0,0,1,0-2.269l8.255-8.566a1.651,1.651,0,0,0,.405-1.562L7.131,24.71A1.65,1.65,0,0,1,8.266,22.7l11.4-3.26A1.661,1.661,0,0,0,20.8,18.293L23.759,7.261a1.638,1.638,0,0,1,1.972-1.167l11.505,2.86a1.62,1.62,0,0,0,1.56-.428L46.842.484a1.656,1.656,0,0,1,2.335,0l8.039,8.039a1.62,1.62,0,0,0,1.562.428L70.3,6.091a1.658,1.658,0,0,1,1.99,1.134l3.272,11.426a1.661,1.661,0,0,0,1.151,1.134l11.032,2.961a1.638,1.638,0,0,1,1.168,1.972L86.054,36.223a1.62,1.62,0,0,0,.428,1.562l8.034,8.039a1.654,1.654,0,0,1,0,2.333Z" transform="translate(-0.975 -0.003)" fill="#f29c1f"/><circle cx="37.27" cy="37.27" r="37.27" transform="translate(9.763 9.718)" fill="#e57e25"/><circle cx="34.029" cy="34.029" r="34.029" transform="translate(13.004 12.959)" fill="#f0c419"/><ellipse cx="13.929" cy="10.528" rx="13.929" ry="10.528" transform="translate(15.476 32.992) rotate(-41.757)" fill="#f3d55b"/><path d="M39.917,53.808A29.157,29.157,0,0,1,14.185,38.367a1.62,1.62,0,0,1,2.855-1.53,25.927,25.927,0,0,0,22.876,13.73,1.62,1.62,0,1,1,0,3.241Z" transform="translate(7.117 22.349)" fill="#ecf0f1"/><path d="M28.1,22.482a1.62,1.62,0,0,1-1.62-1.62,1.62,1.62,0,1,0-3.241,0,1.62,1.62,0,1,1-3.241,0,4.861,4.861,0,1,1,9.723,0A1.62,1.62,0,0,1,28.1,22.482Z" transform="translate(10.829 9.923)" fill="#3f5c6c"/><path d="M42.1,22.482a1.62,1.62,0,0,1-1.62-1.62,1.62,1.62,0,0,0-3.241,0,1.62,1.62,0,1,1-3.241,0,4.861,4.861,0,1,1,9.723,0A1.62,1.62,0,0,1,42.1,22.482Z" transform="translate(19.516 9.923)" fill="#3f5c6c"/><path d="M36.723,22v1.62A4.85,4.85,0,0,1,35.3,27.056a1.307,1.307,0,0,1-.227.194,4.8,4.8,0,0,1-6.417,0A4.746,4.746,0,0,1,27,23.62V22Z" transform="translate(15.172 13.645)" fill="#802d40"/><circle cx="1.62" cy="1.62" r="1.62" transform="translate(17.866 51.85)" fill="#ecf0f1"/><path d="M34.482,26.241a1.578,1.578,0,0,1-.032.389,4.8,4.8,0,0,1-6.417,0A1.578,1.578,0,0,1,28,26.241a3.241,3.241,0,1,1,6.482,0Z" transform="translate(15.792 14.266)" fill="#ff5364"/><g transform="translate(30.829 34.025)"><ellipse cx="4.051" cy="1.62" rx="4.051" ry="1.62" fill="#fb7b76"/><ellipse cx="4.051" cy="1.62" rx="4.051" ry="1.62" transform="translate(24.307)" fill="#fb7b76"/></g></svg>