<svg xmlns="http://www.w3.org/2000/svg" width="22.05" height="23.033" viewBox="0 0 22.05 23.033">
  <defs>
    <style>
      .cls-1 {
        fill: #fff;
        mix-blend-mode: soft-light;
        isolation: isolate;
      }
    </style>
  </defs>
  <path id="cog" class="cls-1" d="M40.412,22.383l-1.978-1.142a8.945,8.945,0,0,0,0-3.26l1.978-1.142a.561.561,0,0,0,.255-.65,11.566,11.566,0,0,0-2.54-4.393.559.559,0,0,0-.687-.107l-1.978,1.142a8.764,8.764,0,0,0-2.823-1.63V8.921a.556.556,0,0,0-.437-.543,11.674,11.674,0,0,0-5.071,0,.556.556,0,0,0-.437.543v2.285a9.041,9.041,0,0,0-2.823,1.63L21.9,11.693a.552.552,0,0,0-.687.107,11.5,11.5,0,0,0-2.54,4.393.555.555,0,0,0,.255.65L20.9,17.986a8.945,8.945,0,0,0,0,3.26l-1.978,1.142a.561.561,0,0,0-.255.65,11.566,11.566,0,0,0,2.54,4.393.559.559,0,0,0,.687.107L23.875,26.4a8.764,8.764,0,0,0,2.823,1.63V30.31a.556.556,0,0,0,.437.543,11.674,11.674,0,0,0,5.071,0,.556.556,0,0,0,.437-.543V28.026a9.041,9.041,0,0,0,2.823-1.63l1.978,1.142a.552.552,0,0,0,.687-.107,11.5,11.5,0,0,0,2.54-4.393A.573.573,0,0,0,40.412,22.383Zm-10.746.943a3.715,3.715,0,1,1,3.715-3.715A3.72,3.72,0,0,1,29.666,23.326Z" transform="translate(-18.644 -8.099)"/>
</svg>
