<svg xmlns="http://www.w3.org/2000/svg" width="16.731" height="13.385" viewBox="0 0 16.731 13.385">
  <path id="crown" d="M13.8,11.712H2.928a.42.42,0,0,0-.418.418v.837a.42.42,0,0,0,.418.418H13.8a.42.42,0,0,0,.418-.418V12.13A.42.42,0,0,0,13.8,11.712Zm1.673-8.366A1.255,1.255,0,0,0,14.222,4.6a1.229,1.229,0,0,0,.115.518L12.444,6.253a.835.835,0,0,1-1.156-.3L9.158,2.222a1.255,1.255,0,1,0-1.584,0L5.443,5.95a.836.836,0,0,1-1.156.3L2.4,5.119a1.254,1.254,0,1,0-1.142.737,1.281,1.281,0,0,0,.2-.021l1.89,5.04H13.385l1.89-5.04a1.281,1.281,0,0,0,.2.021,1.255,1.255,0,0,0,0-2.51Z" fill="#ffcc54"/>
</svg>
