<svg xmlns="http://www.w3.org/2000/svg" xmlns:xlink="http://www.w3.org/1999/xlink" width="52.226" height="51.719" viewBox="0 0 52.226 51.719">
  <defs>
    <style>
      .cls-1 {
        isolation: isolate;
      }

      .cls-2 {
        fill: #82efca;
      }

      .cls-2, .cls-3, .cls-4 {
        fill-rule: evenodd;
      }

      .cls-3 {
        fill: #414141;
      }

      .cls-4 {
        fill: #fa7a7b;
      }

      .cls-5 {
        filter: url(#Path_5);
      }
    </style>
    <filter id="Path_5" x="0" y="0" width="52.226" height="51.719" filterUnits="userSpaceOnUse">
      <feOffset input="SourceAlpha"/>
      <feGaussianBlur stdDeviation="3.5" result="blur"/>
      <feFlood flood-color="#60ffd9"/>
      <feComposite operator="in" in2="blur"/>
      <feComposite in="SourceGraphic"/>
    </filter>
  </defs>
  <g id="green" class="cls-1" transform="translate(10.283 10.283)">
    <g class="cls-5" transform="matrix(1, 0, 0, 1, -10.28, -10.28)">
      <path id="Path_5-2" data-name="Path 5" class="cls-2" d="M31.439,15.6q0,7.562,0,15.125c0,.175-.035.209-.213.209q-15.4-.008-30.8,0c-.178,0-.213-.034-.213-.209q.008-15.15,0-30.3C.217.251.252.217.43.217q15.4.008,30.8,0c.178,0,.213.034.213.209Q31.435,8.014,31.439,15.6Z" transform="translate(10.28 10.28)"/>
    </g>
    <path id="Path_6" data-name="Path 6" class="cls-3" d="M37.229,88.322a.9.9,0,0,1-.388-.135A9.459,9.459,0,0,1,33.609,85.1a7.39,7.39,0,0,1-.622-1.212,1.5,1.5,0,0,1-.1-.732c.058-.463.408-.663.778-.813a4.672,4.672,0,0,1,2.279-.291,48.785,48.785,0,0,0,5.4.493,22.326,22.326,0,0,0,3.837-.307,10.007,10.007,0,0,1,2.75-.217,3.916,3.916,0,0,1,1.692.6.908.908,0,0,1,.285,1.046,7.776,7.776,0,0,1-1.342,2.3A9.446,9.446,0,0,1,46.8,87.65a4.337,4.337,0,0,1-1.231.7,5.244,5.244,0,0,0-1.273-.813,6.813,6.813,0,0,0-2.264-.6,7.029,7.029,0,0,0-4.36,1.1C37.519,88.117,37.424,88.293,37.229,88.322Z" transform="translate(-25.593 -64.404)"/>
    <path id="Path_7" data-name="Path 7" class="cls-4" d="M52.981,105.794a.888.888,0,0,1,.34-.377,7.4,7.4,0,0,1,3.369-1.151,6.637,6.637,0,0,1,3.808.84c.219.12.426.26.638.393a.362.362,0,0,1,.185.319,4.874,4.874,0,0,1-1.644.723,9.939,9.939,0,0,1-4.156.187,10.749,10.749,0,0,1-2.048-.614A1.053,1.053,0,0,1,52.981,105.794Z" transform="translate(-41.345 -81.897)"/>
    <path id="Path_8" data-name="Path 8" class="cls-3" d="M106.555,53.354c0,.212,0,.361-.163.442s-.279-.017-.4-.106a1.883,1.883,0,0,0-.969-.327,2.958,2.958,0,0,0-2.109.4.234.234,0,0,1-.29.024.4.4,0,0,1-.14-.394,2.34,2.34,0,0,1,.411-1.149,1.974,1.974,0,0,1,2.755-.491A2.015,2.015,0,0,1,106.555,53.354Z" transform="translate(-80.134 -40.297)"/>
    <path id="Path_9" data-name="Path 9" class="cls-3" d="M27.435,53.561a.326.326,0,0,1-.161.3c-.115.077-.217.017-.312-.043a3.225,3.225,0,0,0-2.809-.2.946.946,0,0,0-.328.2.238.238,0,0,1-.286.057.341.341,0,0,1-.21-.3,2.133,2.133,0,0,1,1.558-2.015,1.966,1.966,0,0,1,2.323,1.164A2.716,2.716,0,0,1,27.435,53.561Z" transform="translate(-18.11 -40.368)"/>
  </g>
</svg>
