<svg xmlns="http://www.w3.org/2000/svg" width="674" height="735" viewBox="0 0 674 735"><g transform="translate(134 -210)"><g transform="translate(-22 704)" fill="rgba(255,255,255,0)" opacity="0.22"><path d="M 100.2113800048828 115.5 L 33.78861999511719 115.5 L 0.577411413192749 58 L 33.78863525390625 0.5 L 100.2113800048828 0.5 L 133.4225921630859 58 L 100.2113800048828 115.5 Z" stroke="none"/><path d="M 34.07723999023438 1 L 1.154815673828125 58 L 34.07723999023438 115 L 99.92276000976563 115 L 132.8451843261719 58 L 99.92276000976563 1 L 34.07723999023438 1 M 33.5 0 L 100.5 0 L 134 58 L 100.5 116 L 33.5 116 L 0 58 L 33.5 0 Z" stroke="none" fill="#fff"/></g><g transform="translate(0 526)" fill="rgba(255,255,255,0)" opacity="0.22"><path d="M 186.4610900878906 215.5 L 62.53890991210938 215.5 L 0.5771046280860901 108 L 62.5389404296875 0.5 L 186.4610900878906 0.5 L 248.4228973388672 108 L 186.4610900878906 215.5 Z" stroke="none"/><path d="M 62.82781982421875 1 L 1.154205322265625 108 L 62.82781982421875 215 L 186.1721801757813 215 L 247.8457946777344 108 L 186.1721801757813 1 L 62.82781982421875 1 M 62.25 0 L 186.75 0 L 249 108 L 186.75 216 L 62.25 216 L 0 108 L 62.25 0 Z" stroke="none" fill="#fff"/></g><g transform="translate(164 591)" fill="rgba(255,255,255,0)" opacity="0.22"><path d="M 147.4609985351563 170.5 L 49.53899765014648 170.5 L 0.5770110487937927 85.5 L 49.53902435302734 0.5 L 147.4609985351563 0.5 L 196.4229888916016 85.5 L 147.4609985351563 170.5 Z" stroke="none"/><path d="M 49.82804870605469 1 L 1.154037475585938 85.50001525878906 L 49.8280029296875 170 L 147.1719970703125 170 L 195.8459625244141 85.5 L 147.1719970703125 1 L 49.82804870605469 1 M 49.25003051757813 0 L 147.75 0 L 197 85.5 L 147.75 171 L 49.25 171 L 0 85.5 L 49.25003051757813 0 Z" stroke="none" fill="#fff"/></g><g transform="translate(-134 291)" fill="rgba(255,255,255,0)" opacity="0.22"><path d="M 249.4610137939453 288.5 L 83.53897857666016 288.5 L 0.5770411491394043 144.5 L 83.53901672363281 0.5 L 249.4610137939453 0.5 L 332.4229736328125 144.5 L 249.4610137939453 288.5 Z" stroke="none"/><path d="M 83.82801818847656 1 L 1.15411376953125 144.5 L 83.82798767089844 288 L 249.1720275878906 288 L 331.8458862304688 144.5 L 249.1720275878906 1 L 83.82801818847656 1 M 83.25004577636719 0 L 249.75 0 L 333 144.5 L 249.75 289 L 83.25 289 L 0 144.5 L 83.25004577636719 0 Z" stroke="none" fill="#fff"/></g><g transform="translate(207 656)" fill="rgba(255,255,255,0)" opacity="0.22"><path d="M 249.4610137939453 288.5 L 83.53897857666016 288.5 L 0.5770411491394043 144.5 L 83.53901672363281 0.5 L 249.4610137939453 0.5 L 332.4229736328125 144.5 L 249.4610137939453 288.5 Z" stroke="none"/><path d="M 83.82801818847656 1 L 1.15411376953125 144.5 L 83.82798767089844 288 L 249.1720275878906 288 L 331.8458862304688 144.5 L 249.1720275878906 1 L 83.82801818847656 1 M 83.25004577636719 0 L 249.75 0 L 333 144.5 L 249.75 289 L 83.25 289 L 0 144.5 L 83.25004577636719 0 Z" stroke="none" fill="#fff"/></g><g transform="translate(45 210)" fill="rgba(255,255,255,0)" opacity="0.22"><path d="M 140.7111511230469 162.5 L 47.28884887695313 162.5 L 0.5771911144256592 81.5 L 47.28887176513672 0.5 L 140.7111511230469 0.5 L 187.4228057861328 81.5 L 140.7111511230469 162.5 Z" stroke="none"/><path d="M 47.57771301269531 1 L 1.154388427734375 81.5 L 47.57769775390625 162 L 140.4223022460938 162 L 186.8456115722656 81.5 L 140.4223022460938 1 L 47.57771301269531 1 M 47.00003051757813 0 L 141 0 L 188 81.5 L 141 163 L 47 163 L 0 81.5 L 47.00003051757813 0 Z" stroke="none" fill="#fff"/></g><g transform="translate(186 413)" fill="rgba(255,255,255,0)" opacity="0.22"><path d="M 140.7111511230469 162.5 L 47.28884887695313 162.5 L 0.5771911144256592 81.5 L 47.28887176513672 0.5 L 140.7111511230469 0.5 L 187.4228057861328 81.5 L 140.7111511230469 162.5 Z" stroke="none"/><path d="M 47.57771301269531 1 L 1.154388427734375 81.5 L 47.57769775390625 162 L 140.4223022460938 162 L 186.8456115722656 81.5 L 140.4223022460938 1 L 47.57771301269531 1 M 47.00003051757813 0 L 141 0 L 188 81.5 L 141 163 L 47 163 L 0 81.5 L 47.00003051757813 0 Z" stroke="none" fill="#fff"/></g><g transform="translate(183 316)" fill="rgba(255,255,255,0)" opacity="0.22"><path d="M 49.21172714233398 56.5 L 16.78827476501465 56.5 L 0.5777478814125061 28.49999809265137 L 16.78827476501465 0.4999980926513672 L 49.21172714233398 0.4999980926513672 L 65.42224884033203 28.49999809265137 L 49.21172714233398 56.5 Z" stroke="none"/><path d="M 17.07655715942383 0.9999961853027344 L 1.155502319335938 28.49999809265137 L 17.07655715942383 56 L 48.92343902587891 56 L 64.84449768066406 28.49999809265137 L 48.92343902587891 0.9999961853027344 L 17.07655715942383 0.9999961853027344 M 16.5 -3.814697265625e-06 L 49.5 -3.814697265625e-06 L 66 28.49999809265137 L 49.5 57 L 16.5 57 L 0 28.49999809265137 L 16.5 -3.814697265625e-06 Z" stroke="none" fill="#fff"/></g></g></svg>