<svg xmlns="http://www.w3.org/2000/svg" width="20.952" height="12.914" viewBox="0 0 20.952 12.914">
  <defs>
    <style>
      .cls-1 {
        fill: #fff;
        mix-blend-mode: soft-light;
        isolation: isolate;
      }
    </style>
  </defs>
  <path id="icon-logs" class="cls-1" d="M.748,34.767H20.2c.413,0,.748-.206.748-.461V32.461c0-.255-.335-.461-.748-.461H.748C.335,32,0,32.206,0,32.461v1.845C0,34.561.335,34.767.748,34.767Zm19.44,2.306H.74c-.413,0-.748.206-.748.461v1.845c0,.255.335.461.748.461H20.188c.413,0,.748-.206.748-.461V37.534C20.936,37.28,20.6,37.073,20.188,37.073Zm.008,5.073H.748c-.413,0-.748.206-.748.461v1.845c0,.255.335.461.748.461H20.2c.413,0,.748-.206.748-.461V42.608C20.944,42.353,20.609,42.147,20.2,42.147Z" transform="translate(0.008 -32)"/>
</svg>
