<svg xmlns="http://www.w3.org/2000/svg" width="16.078" height="16.075" viewBox="0 0 16.078 16.075">
  <path id="upload" d="M9.295,12.131H6.783a.752.752,0,0,1-.754-.754V6.1H3.275a.627.627,0,0,1-.443-1.071L7.609.252a.608.608,0,0,1,.857,0l4.779,4.779A.627.627,0,0,1,12.8,6.1H10.049v5.276A.752.752,0,0,1,9.295,12.131Zm6.783-.251V15.4a.752.752,0,0,1-.754.754H.754A.752.752,0,0,1,0,15.4V11.88a.752.752,0,0,1,.754-.754H5.024v.251a1.76,1.76,0,0,0,1.759,1.759H9.295a1.76,1.76,0,0,0,1.759-1.759v-.251h4.271A.752.752,0,0,1,16.078,11.88Zm-3.894,2.763a.628.628,0,1,0-.628.628A.63.63,0,0,0,12.184,14.643Zm2.01,0a.628.628,0,1,0-.628.628A.63.63,0,0,0,14.194,14.643Z" transform="translate(0 -0.075)" fill="#bcdbff"/>
</svg>
