<svg xmlns="http://www.w3.org/2000/svg" width="32.149" height="22.502" viewBox="0 0 32.149 22.502">
  <defs>
    <style>
      .cls-1 {
        fill: #fff;
      }
    </style>
  </defs>
  <path id="users-cog" class="cls-1" d="M30.671,47.634a5.893,5.893,0,0,0,0-2.14l1.3-.749a.364.364,0,0,0,.166-.427,7.539,7.539,0,0,0-1.668-2.884.366.366,0,0,0-.452-.07l-1.3.749a5.9,5.9,0,0,0-1.854-1.07v-1.5a.366.366,0,0,0-.286-.357,7.58,7.58,0,0,0-3.326,0,.366.366,0,0,0-.286.357v1.5a5.9,5.9,0,0,0-1.854,1.07l-1.3-.749a.367.367,0,0,0-.452.07,7.539,7.539,0,0,0-1.668,2.884.37.37,0,0,0,.166.427l1.3.749a5.893,5.893,0,0,0,0,2.14l-1.3.749a.364.364,0,0,0-.166.427,7.577,7.577,0,0,0,1.668,2.884.366.366,0,0,0,.452.07l1.3-.749a5.9,5.9,0,0,0,1.854,1.07v1.5a.366.366,0,0,0,.286.357,7.58,7.58,0,0,0,3.326,0,.366.366,0,0,0,.286-.357v-1.5a5.9,5.9,0,0,0,1.854-1.07l1.3.749a.367.367,0,0,0,.452-.07,7.539,7.539,0,0,0,1.668-2.884.37.37,0,0,0-.166-.427ZM24.918,49a2.437,2.437,0,1,1,2.437-2.437A2.439,2.439,0,0,1,24.918,49Zm-20.1-7.26a3.215,3.215,0,1,0-3.215-3.215A3.218,3.218,0,0,0,4.823,41.741Zm11.254,1.608c.1,0,.186-.025.281-.03a9.261,9.261,0,0,1,1.824-2.974,1.98,1.98,0,0,1,1.452-.633,1.931,1.931,0,0,1,.985.266l.4.231c.04-.025.08-.045.121-.07a5.561,5.561,0,0,0,.563-2.411,5.624,5.624,0,1,0-5.622,5.622Zm5.285,9.771c-.116-.06-.231-.131-.342-.2a2.482,2.482,0,0,1-1.382.492,2,2,0,0,1-1.452-.633,9.161,9.161,0,0,1-2.02-3.5,2.144,2.144,0,0,1,1.3-2.527q-.008-.2,0-.392l-.4-.231a2.046,2.046,0,0,1-.492-.407c-.166.01-.327.03-.492.03a7.931,7.931,0,0,1-3.441-.8h-.417a5.79,5.79,0,0,0-5.793,5.788v1.447A2.412,2.412,0,0,0,8.842,54.6H21.673a1.934,1.934,0,0,1-.311-1.02ZM8.7,44.283a3.206,3.206,0,0,0-2.266-.934H3.215A3.218,3.218,0,0,0,0,46.564v1.608a1.606,1.606,0,0,0,1.608,1.608H4.918A7.367,7.367,0,0,1,8.7,44.283Z" transform="translate(0 -32.1)"/>
</svg>
