<svg xmlns="http://www.w3.org/2000/svg" xmlns:xlink="http://www.w3.org/1999/xlink" width="195" height="195" viewBox="0 0 195 195"><defs><filter id="a" x="0" y="0" width="195" height="195" filterUnits="userSpaceOnUse"><feOffset dy="3" input="SourceAlpha"/><feGaussianBlur stdDeviation="3" result="b"/><feFlood flood-opacity="0.161"/><feComposite operator="in" in2="b"/><feComposite in="SourceGraphic"/></filter></defs><g transform="translate(14.64 16.274)"><g transform="matrix(1, 0, 0, 1, -14.64, -16.27)" filter="url(#a)"><g transform="translate(19 16)" fill="#ff7d7d" stroke="#fff" stroke-linejoin="round" stroke-width="10"><rect width="157" height="157" stroke="none"/><rect x="-5" y="-5" width="167" height="167" fill="none"/></g></g><path d="M11.727,25.132c-2,.226-3.087-.32-3.014-1.507a2.54,2.54,0,0,1,.846-1.506c2.87-3,7.428-4.713,12.949-5.606a31.785,31.785,0,0,1,14.78.682,27.85,27.85,0,0,1,9.495,5.047,1.8,1.8,0,0,1,.755,1.677c-.127.983-.979,1.394-2.679,1.238-1.9-.175-3.737-1.072-5.644-1.238-2.717-.237-13.845-.17-21.724.153C15.245,24.163,13.068,24.98,11.727,25.132Z" transform="translate(54.955 83.498)" fill="#4d4645" fill-rule="evenodd"/><g transform="translate(0 -6)"><g transform="translate(24.794 71.62)"><path d="M20.647,62.041A100.668,100.668,0,0,0,55.2,71.235" transform="translate(-20.647 -62.041)" fill="#4d4645" stroke="#4d4645" stroke-linecap="round" stroke-width="7"/><ellipse cx="8.5" cy="8" rx="8.5" ry="8" transform="translate(11.566 5.105)" fill="#4d4645"/></g><g transform="translate(103.451 71.62)"><path d="M55.2,62.041a100.667,100.667,0,0,1-34.549,9.194" transform="translate(-20.647 -62.041)" fill="#4d4645" stroke="#4d4645" stroke-linecap="round" stroke-width="7"/><ellipse cx="8.22" cy="8.221" rx="8.22" ry="8.221" transform="translate(7.401 5.09)" fill="#4d4645"/></g></g></g></svg>