<svg xmlns="http://www.w3.org/2000/svg" xmlns:xlink="http://www.w3.org/1999/xlink" width="195" height="195" viewBox="0 0 195 195"><defs><filter id="a" x="0" y="0" width="195" height="195" filterUnits="userSpaceOnUse"><feOffset dy="3" input="SourceAlpha"/><feGaussianBlur stdDeviation="3" result="b"/><feFlood flood-opacity="0.161"/><feComposite operator="in" in2="b"/><feComposite in="SourceGraphic"/></filter></defs><g transform="translate(19.128 15.87)"><g transform="matrix(1, 0, 0, 1, -19.13, -15.87)" filter="url(#a)"><g transform="translate(19 16)" fill="#a8ff84" stroke="#fff" stroke-linecap="round" stroke-linejoin="round" stroke-width="10"><rect width="157" height="157" stroke="none"/><rect x="-5" y="-5" width="167" height="167" fill="none"/></g></g><path d="M26.872,27.422A25.4,25.4,0,0,1,9.446,20.339a30.277,30.277,0,0,1-9-17.571C5.967,6.789,15.1,8.916,26.872,8.916S47.777,6.79,53.3,2.769a30.276,30.276,0,0,1-9,17.571A25.4,25.4,0,0,1,26.872,27.422Z" transform="translate(51.428 80.361)" fill="#414141"/><g transform="translate(-0.284 6.415)"><path d="M38.944,19.144c-.023,1.072-.02,1.826-.821,2.241-.827.428-1.4-.085-1.988-.538a9.423,9.423,0,0,0-4.874-1.654c-3.733-.429-7.37-.2-10.607,2.049a1.169,1.169,0,0,1-1.457.123,2.031,2.031,0,0,1-.7-2,11.91,11.91,0,0,1,2.066-5.819c3.581-4.8,9.186-5.475,13.857-2.489A10.226,10.226,0,0,1,38.944,19.144Z" transform="translate(92.846 46.452)" fill="#414141" stroke="#ff6060" stroke-width="0.18" fill-rule="evenodd"/><path d="M4.207,19.751a1.655,1.655,0,0,0,.808,1.539c.579.391,1.092.084,1.568-.219,4.528-2.87,9.291-2.515,14.127-1.024a4.749,4.749,0,0,1,1.651,1.018,1.192,1.192,0,0,0,1.438.286,1.729,1.729,0,0,0,1.056-1.54c-.467-4.652-2.781-8.9-7.837-10.207A9.871,9.871,0,0,0,5.334,15.5,13.841,13.841,0,0,0,4.207,19.751Z" transform="translate(20.952 46.534)" fill="#414141" stroke="#ff6060" stroke-width="0.18" fill-rule="evenodd"/></g></g></svg>