<svg xmlns="http://www.w3.org/2000/svg" xmlns:xlink="http://www.w3.org/1999/xlink" width="195" height="195" viewBox="0 0 195 195"><defs><filter id="a" x="0" y="0" width="195" height="195" filterUnits="userSpaceOnUse"><feOffset dy="3" input="SourceAlpha"/><feGaussianBlur stdDeviation="3" result="b"/><feFlood flood-opacity="0.161"/><feComposite operator="in" in2="b"/><feComposite in="SourceGraphic"/></filter></defs><g transform="translate(-128.927 9.467)"><g transform="matrix(1, 0, 0, 1, 128.93, -9.47)" filter="url(#a)"><g transform="translate(19 16)" fill="#92ffda" stroke="#fff" stroke-linecap="round" stroke-linejoin="round" stroke-width="10"><rect width="157" height="157" stroke="none"/><rect x="-5" y="-5" width="167" height="167" fill="none"/></g></g><g transform="translate(148.376 12)"><path d="M27.805,57.916a3.84,3.84,0,0,1-1.951-.923A58.181,58.181,0,0,1,9.6,35.853a59.084,59.084,0,0,1-3.126-8.292,13.651,13.651,0,0,1-.492-5.006c.29-3.169,83.027-2.2,85.623,0,.712,1.091.666.933,0,3.528a59.888,59.888,0,0,1-6.75,15.733,57.978,57.978,0,0,1-8.912,11.5,21.263,21.263,0,0,1-6.191,4.759c-1.907-2.329-8.885-2.331-11.187-3.821-3.6-2.332-9.28-1.738-9.28-1.738S36.8,50.451,30.035,55.887C29.261,56.513,28.784,57.716,27.805,57.916Z" transform="translate(29.627 62.966)" fill="#414141" stroke="#ff6060" stroke-width="0.18" fill-rule="evenodd"/><path d="M51.489,26.644a4.49,4.49,0,0,0-1.711-1.91A37.053,37.053,0,0,0,32.835,18.9a33.181,33.181,0,0,0-19.152,4.258c-1.1.608-2.143,1.318-3.207,1.989a1.834,1.834,0,0,0-.93,1.616,24.421,24.421,0,0,0,8.266,3.664,49.631,49.631,0,0,0,20.9.948,53.759,53.759,0,0,0,10.3-3.111A5.294,5.294,0,0,0,51.489,26.644Z" transform="translate(47.885 94.444)" fill="#fa7a7b" stroke="#ff6060" stroke-width="0.18" fill-rule="evenodd"/></g><g transform="translate(147.771 12)"><path d="M38.944,19.144c-.023,1.072-.02,1.826-.821,2.241-.827.428-1.4-.085-1.988-.538a9.423,9.423,0,0,0-4.874-1.654c-3.733-.429-7.37-.2-10.607,2.049a1.169,1.169,0,0,1-1.457.123,2.031,2.031,0,0,1-.7-2,11.91,11.91,0,0,1,2.066-5.819c3.581-4.8,9.186-5.475,13.857-2.489A10.226,10.226,0,0,1,38.944,19.144Z" transform="translate(92.846 46.452)" fill="#414141" stroke="#ff6060" stroke-width="0.18" fill-rule="evenodd"/><path d="M4.207,19.751a1.655,1.655,0,0,0,.808,1.539c.579.391,1.092.084,1.568-.219,4.528-2.87,9.291-2.515,14.127-1.024a4.749,4.749,0,0,1,1.651,1.018,1.192,1.192,0,0,0,1.438.286,1.729,1.729,0,0,0,1.056-1.54c-.467-4.652-2.781-8.9-7.837-10.207A9.871,9.871,0,0,0,5.334,15.5,13.841,13.841,0,0,0,4.207,19.751Z" transform="translate(20.952 46.534)" fill="#414141" stroke="#ff6060" stroke-width="0.18" fill-rule="evenodd"/></g></g></svg>